<?xml version="1.0" standalone="no"?>
<!DOCTYPE svg PUBLIC "-//W3C//DTD SVG 20010904//EN"
 "http://www.w3.org/TR/2001/REC-SVG-20010904/DTD/svg10.dtd">
<svg version="1.0" xmlns="http://www.w3.org/2000/svg"
 width="1080.000000pt" height="1350.000000pt" viewBox="0 0 1080.000000 1350.000000"
 preserveAspectRatio="xMidYMid meet">

<g transform="translate(0.000000,1350.000000) scale(0.100000,-0.100000)"
fill="#000000" stroke="none">
<path d="M6489 10923 c-17 -38 -42 -95 -55 -128 -14 -33 -29 -69 -34 -80 -5
-11 -57 -132 -115 -270 -59 -137 -113 -263 -121 -280 -43 -93 -94 -227 -89
-235 3 -6 11 -10 17 -10 6 0 29 -9 52 -20 23 -10 91 -40 151 -65 61 -25 128
-55 151 -66 23 -10 45 -19 50 -19 5 0 23 -7 39 -16 17 -9 64 -27 105 -41 64
-22 93 -26 200 -26 107 -1 134 2 190 23 157 57 247 148 340 341 34 70 51 246
31 313 -5 17 -14 49 -20 72 -15 58 -81 154 -154 227 -74 72 -152 115 -437 236
-52 22 -132 56 -178 75 -46 20 -85 36 -88 36 -3 0 -19 -30 -35 -67z m316 -283
c62 -27 116 -50 119 -50 12 0 91 -54 116 -80 76 -76 110 -150 110 -240 0 -98
-42 -199 -117 -285 -41 -46 -166 -104 -226 -105 -74 -1 -407 126 -407 155 0
10 156 386 195 470 30 65 55 128 55 138 0 10 29 47 38 47 2 0 55 -22 117 -50z"/>
<path d="M3750 10853 c-19 -8 -54 -24 -78 -34 -23 -11 -51 -19 -62 -19 -10 0
-21 -4 -24 -9 -5 -7 52 -175 109 -321 7 -19 32 -89 55 -155 23 -66 48 -134 56
-152 8 -17 14 -36 14 -42 0 -6 6 -25 14 -43 20 -46 36 -90 102 -273 31 -88 59
-162 60 -164 2 -2 9 1 16 6 7 6 29 13 48 17 57 10 155 54 158 71 2 8 -11 56
-29 105 l-32 90 27 64 c46 109 42 107 127 55 41 -24 81 -48 90 -54 9 -5 34
-20 55 -33 22 -12 53 -31 69 -42 69 -45 88 -52 119 -46 34 7 117 38 182 67 23
11 46 19 53 19 24 0 9 18 -40 49 -28 17 -52 31 -54 31 -2 0 -30 17 -62 38 -32
21 -85 55 -118 76 -113 70 -163 101 -203 126 -23 14 -42 29 -42 33 0 7 98 227
171 384 30 64 35 83 21 83 -5 0 -37 -12 -73 -26 -35 -14 -91 -34 -125 -45
l-61 -19 -114 -226 c-62 -124 -116 -227 -120 -230 -7 -4 -49 87 -49 108 0 8
-7 23 -15 34 -8 10 -15 27 -15 36 0 10 -6 32 -14 50 -8 18 -31 80 -51 138 -20
58 -45 128 -55 155 -10 28 -24 65 -30 83 -14 36 -28 38 -80 15z"/>
<path d="M3324 10215 c-122 -33 -233 -112 -307 -219 -71 -101 -80 -130 -81
-264 0 -111 1 -120 32 -185 49 -104 178 -227 238 -227 12 0 24 -4 26 -10 10
-32 214 -35 273 -4 15 8 35 14 44 14 41 1 193 112 244 179 63 82 104 226 81
285 -7 19 -32 20 -141 4 l-83 -12 0 -46 c-1 -62 -29 -120 -81 -162 -97 -79
-224 -75 -312 10 -132 128 -118 314 31 397 41 23 57 26 126 24 73 -2 80 0 96
22 28 39 73 147 67 162 -7 18 -111 47 -163 46 -21 0 -62 -7 -90 -14z"/>
<path d="M7622 9949 c-120 -20 -270 -137 -327 -254 -25 -52 -30 -74 -33 -165
-4 -91 -1 -114 19 -173 41 -119 208 -302 295 -323 16 -4 37 -14 47 -22 13 -12
40 -16 95 -17 l77 0 3 92 c3 103 9 95 -80 107 -58 7 -156 85 -206 161 -22 34
-26 51 -26 116 -1 49 4 82 13 92 12 15 16 14 49 -11 20 -15 46 -37 57 -49 26
-27 206 -196 318 -297 l88 -79 35 34 c85 82 144 217 144 328 -1 210 -192 425
-412 461 -71 11 -82 11 -156 -1z m240 -236 c85 -57 130 -149 113 -229 -12 -53
-28 -85 -41 -82 -15 4 -314 278 -314 289 0 10 50 45 75 52 45 13 125 -1 167
-30z"/>
<path d="M2540 9481 c-127 -41 -241 -154 -325 -319 -34 -68 -76 -224 -64 -237
4 -3 45 -11 93 -17 99 -13 100 -13 109 57 13 93 97 224 168 260 56 30 169 11
169 -28 0 -7 -34 -57 -75 -111 -41 -55 -91 -133 -112 -174 -33 -65 -37 -82
-37 -145 -1 -105 31 -159 129 -218 33 -20 53 -24 115 -24 67 0 81 4 133 34 68
39 137 115 175 191 22 46 27 68 27 132 l-1 76 28 -14 c15 -8 30 -18 33 -24 3
-5 10 -10 15 -10 11 0 140 164 140 178 0 8 -154 129 -289 227 -16 11 -57 42
-92 69 -91 69 -160 98 -244 102 -38 2 -81 0 -95 -5z m322 -399 c53 -33 74 -99
54 -166 -21 -69 -64 -126 -111 -147 -51 -22 -88 -15 -120 23 -31 36 -32 75 -4
131 24 47 131 189 139 184 3 -1 22 -13 42 -25z"/>
<path d="M8405 9312 c-28 -39 -124 -170 -215 -290 -240 -320 -290 -390 -290
-412 0 -18 90 -184 114 -208 10 -11 36 -10 142 3 71 8 140 19 154 24 14 5 64
12 111 15 47 3 105 13 129 21 23 8 68 15 99 15 112 0 280 28 304 50 5 4 -15
48 -45 98 l-53 91 -46 0 c-25 1 -54 -6 -65 -14 -12 -9 -44 -15 -89 -15 -38 0
-117 -7 -175 -15 -220 -32 -253 -36 -266 -33 -8 2 16 42 63 103 41 55 85 114
97 131 11 17 63 86 114 153 50 68 92 130 92 140 0 9 -22 53 -49 96 -82 132
-69 127 -126 47z"/>
<path d="M1947 8668 c-13 -29 -32 -75 -43 -101 -22 -54 -13 -54 -134 -3 -46
20 -85 36 -86 36 -4 0 -94 -220 -94 -230 0 -5 5 -10 11 -10 5 0 35 -11 65 -25
30 -14 60 -25 67 -25 7 0 20 -7 29 -14 17 -12 17 -16 -3 -75 -12 -34 -20 -63
-18 -65 9 -6 126 -54 146 -61 20 -5 26 1 50 49 15 31 33 56 41 56 13 0 94 -33
199 -81 24 -10 49 -19 57 -19 8 0 17 -4 21 -9 7 -13 166 -61 196 -61 42 1 133
38 171 70 45 37 83 99 115 187 22 61 31 157 16 166 -5 3 -47 7 -95 11 l-88 6
0 -41 c0 -52 -34 -114 -72 -130 -40 -16 -77 -8 -216 50 -67 28 -128 51 -136
51 -7 0 -19 7 -26 15 -7 8 -19 15 -27 15 -27 0 -24 29 11 114 20 47 33 92 30
100 -3 8 -38 28 -77 43 -40 15 -75 29 -79 31 -4 2 -18 -20 -31 -50z"/>
<path d="M8528 8247 c-106 -45 -199 -137 -235 -233 -34 -92 -49 -196 -35 -243
7 -21 12 -54 12 -72 0 -19 7 -47 15 -63 8 -15 15 -34 15 -42 0 -30 66 -137
110 -178 77 -72 80 -73 125 -11 76 106 75 98 26 145 -64 63 -94 137 -95 235
-1 94 21 147 80 191 40 31 49 26 60 -36 3 -19 12 -55 19 -80 8 -25 24 -88 36
-140 12 -52 37 -155 55 -227 19 -73 34 -135 34 -138 0 -21 151 27 216 67 94
60 166 164 189 274 45 216 -62 447 -253 545 -42 21 -62 24 -182 27 -123 2
-140 0 -192 -21z m304 -216 c89 -40 154 -138 146 -222 -6 -64 -46 -139 -87
-166 -61 -41 -52 -58 -121 226 -22 90 -37 168 -34 172 9 15 50 10 96 -10z"/>
<path d="M1445 7977 c-80 -93 -151 -324 -149 -487 1 -180 68 -306 198 -374 42
-22 62 -26 138 -26 102 0 136 12 192 66 70 68 87 100 203 374 45 106 86 150
141 150 49 0 87 -35 103 -94 12 -44 6 -153 -12 -221 -18 -67 -70 -177 -105
-224 -19 -24 -34 -51 -34 -60 0 -15 137 -111 159 -111 31 0 129 165 164 275
94 294 44 549 -127 654 -54 34 -158 52 -221 39 -71 -15 -96 -30 -150 -90 -49
-55 -76 -107 -166 -317 -60 -142 -86 -178 -135 -187 -48 -9 -107 31 -124 82
-14 42 -8 220 9 251 5 10 21 43 35 73 13 30 35 71 47 92 12 20 19 43 16 50 -3
8 -41 35 -85 60 -79 45 -80 45 -97 25z"/>
<path d="M8940 7207 c-300 -4 -551 -10 -557 -12 -10 -3 -13 -39 -13 -131 l0
-126 128 6 c109 4 866 23 1035 25 l57 1 0 108 c0 59 -4 114 -9 122 -12 17 28
17 -641 7z"/>
<path d="M8575 6767 c-154 -73 -242 -190 -280 -369 -20 -95 -19 -137 5 -230
21 -86 65 -162 126 -220 39 -36 126 -88 149 -88 7 0 26 -7 41 -15 38 -19 208
-21 245 -1 14 7 38 16 54 20 39 10 103 55 152 109 137 148 171 413 78 598 -34
65 -116 143 -195 182 -61 30 -71 32 -195 35 -119 2 -134 1 -180 -21z m290
-253 c104 -59 147 -161 114 -277 -12 -44 -58 -100 -111 -133 -78 -49 -241 -22
-309 52 -54 59 -64 83 -63 160 1 59 5 80 28 118 29 50 86 93 138 107 55 13
154 0 203 -27z"/>
<path d="M7868 5978 c-29 -51 -56 -100 -60 -110 -6 -13 12 -28 93 -72 54 -31
102 -56 105 -56 2 0 17 -8 32 -18 15 -11 47 -31 71 -46 l43 -28 -58 -28 c-89
-42 -155 -124 -199 -245 -76 -208 28 -431 250 -536 35 -17 77 -29 101 -29 22
0 45 -5 51 -11 19 -19 214 10 242 35 10 9 22 16 27 16 16 0 123 104 144 140
59 101 65 121 65 223 0 53 3 97 8 97 5 0 20 -9 34 -20 14 -11 30 -20 34 -20 5
0 23 28 40 62 17 34 43 79 57 100 17 26 22 42 15 49 -9 9 -71 44 -148 85 -16
8 -48 26 -70 39 -22 14 -51 30 -65 37 -14 7 -56 32 -95 55 -38 24 -74 43 -80
43 -6 0 -17 6 -23 12 -12 12 -115 72 -172 101 -14 6 -57 31 -97 55 -39 23 -75
42 -79 42 -4 0 -15 6 -23 14 -9 7 -41 27 -72 44 -31 16 -67 37 -80 46 -13 9
-27 16 -30 16 -4 0 -31 -42 -61 -92z m549 -475 c50 -24 110 -66 132 -95 10
-13 28 -47 41 -75 25 -59 23 -77 -16 -159 -31 -66 -77 -107 -144 -129 -50 -17
-55 -17 -114 1 -98 29 -158 75 -192 149 -39 82 -28 155 34 243 52 72 176 103
259 65z"/>
<path d="M2580 5678 c-63 -33 -182 -95 -265 -137 -82 -43 -159 -83 -170 -88
-11 -6 -49 -26 -85 -44 -151 -75 -399 -205 -420 -219 l-22 -15 43 -80 c23 -44
50 -92 58 -106 l16 -26 40 18 c22 10 47 23 55 28 8 5 44 24 80 42 103 51 300
153 485 249 94 49 223 115 287 147 108 53 118 60 118 85 0 28 -86 209 -99 207
-3 0 -58 -27 -121 -61z"/>
<path d="M2810 5305 c-41 -30 -111 -80 -155 -110 -44 -31 -100 -71 -125 -89
-25 -18 -83 -59 -130 -92 -265 -184 -462 -327 -473 -345 -8 -13 3 -36 54 -108
35 -50 70 -91 76 -91 11 0 50 26 261 177 30 21 62 46 73 56 10 9 23 17 28 17
4 0 24 12 44 28 20 15 90 65 157 112 66 47 169 120 227 163 59 43 116 83 127
89 31 15 66 50 66 63 0 23 -122 185 -139 185 -9 0 -50 -25 -91 -55z"/>
<path d="M2965 4893 c-75 -87 -167 -192 -204 -233 -159 -176 -232 -263 -229
-271 4 -11 170 -159 179 -159 4 0 51 51 104 113 144 167 255 278 292 293 76
32 150 15 219 -50 l54 -52 0 -62 c0 -43 -6 -71 -19 -93 -20 -32 -198 -244
-283 -336 -72 -78 -70 -83 63 -196 l56 -47 75 82 c226 251 320 370 354 447 24
57 25 182 2 226 -9 17 -22 43 -29 60 -21 45 -112 130 -171 160 -29 15 -86 32
-126 38 l-74 12 21 27 c30 37 26 62 -15 93 -19 15 -54 45 -77 66 -23 21 -45
39 -48 39 -4 0 -69 -71 -144 -157z"/>
<path d="M7630 4933 c-43 -9 -143 -54 -186 -84 -138 -94 -244 -258 -244 -376
0 -30 3 -32 43 -38 23 -4 64 -5 92 -3 l49 3 24 63 c30 78 115 175 170 193 20
6 41 15 47 20 18 18 116 10 151 -12 19 -11 34 -23 34 -25 0 -6 -67 -70 -151
-144 -76 -67 -154 -139 -266 -245 -35 -33 -63 -65 -63 -72 0 -19 67 -89 118
-124 43 -29 87 -48 162 -71 49 -15 192 -4 221 16 13 9 31 16 40 16 25 0 109
60 167 120 32 32 68 85 90 130 36 73 37 78 37 190 0 112 -1 117 -38 191 -45
94 -129 176 -225 221 -55 26 -79 31 -156 34 -50 1 -102 0 -116 -3z m316 -418
c35 -92 -7 -201 -101 -262 -43 -29 -58 -33 -115 -33 -65 0 -130 25 -130 51 0
6 26 34 57 62 32 29 102 93 157 144 55 51 103 90 107 87 4 -2 15 -24 25 -49z"/>
<path d="M6940 4449 c-19 -12 -61 -35 -92 -51 -57 -29 -68 -41 -48 -53 6 -4
16 -21 24 -38 7 -18 55 -108 106 -202 91 -168 92 -171 93 -242 1 -61 -2 -76
-24 -106 -28 -40 -95 -97 -114 -97 -7 0 -18 -6 -24 -14 -10 -11 -3 -32 34 -99
25 -47 52 -90 59 -96 10 -9 25 -2 63 26 62 47 93 85 118 143 27 65 31 67 59
21 15 -22 29 -41 31 -41 17 0 190 101 193 112 1 7 -87 180 -197 383 -218 407
-211 397 -281 354z"/>
<path d="M4310 4158 c-12 -29 -49 -115 -82 -190 -65 -146 -60 -141 -123 -113
-16 8 -56 25 -87 39 -31 15 -63 26 -71 26 -8 0 -20 6 -26 14 -7 8 -24 17 -39
21 -14 3 -64 24 -110 46 -46 21 -87 37 -91 34 -11 -6 -66 -123 -74 -155 -5
-22 -1 -28 36 -47 50 -25 106 -50 207 -93 41 -17 93 -40 116 -51 22 -10 47
-19 55 -19 16 -1 59 -34 59 -46 0 -4 -9 -26 -19 -48 -45 -96 -79 -173 -85
-193 -11 -36 -2 -39 -276 79 -52 23 -113 49 -135 59 -107 47 -161 67 -167 61
-18 -19 -59 -138 -56 -164 3 -26 11 -33 73 -59 39 -17 84 -37 100 -44 17 -8
84 -37 150 -66 66 -28 138 -59 160 -69 60 -26 103 -45 175 -75 36 -15 74 -32
84 -37 16 -9 24 -6 43 16 13 15 23 34 23 43 0 8 7 27 14 41 8 15 21 43 30 62
8 19 37 86 65 148 28 62 51 115 51 118 0 3 7 22 16 42 9 21 25 55 35 77 9 22
36 85 59 140 23 55 54 127 70 160 91 198 91 195 -5 236 -38 17 -82 36 -97 44
-42 24 -54 18 -78 -37z"/>
</g>
</svg>
