<?xml version="1.0" standalone="no"?>
<!DOCTYPE svg PUBLIC "-//W3C//DTD SVG 20010904//EN"
 "http://www.w3.org/TR/2001/REC-SVG-20010904/DTD/svg10.dtd">
<svg version="1.0" xmlns="http://www.w3.org/2000/svg"
 width="493.000000pt" height="416.000000pt" viewBox="0 0 493.000000 416.000000"
 preserveAspectRatio="xMidYMid meet">

<g transform="translate(0.000000,416.000000) scale(0.100000,-0.100000)"
fill="#000000" stroke="none">
<path d="M0 2080 l0 -2080 2465 0 2465 0 0 2080 0 2080 -2465 0 -2465 0 0
-2080z m2333 1133 c18 -10 34 -21 35 -25 2 -5 9 -8 15 -8 7 0 24 -11 39 -25
15 -14 30 -25 33 -25 3 0 11 -5 18 -10 16 -13 77 -59 119 -88 92 -64 245 -174
261 -187 9 -8 20 -15 23 -15 3 0 11 -6 19 -13 11 -11 9 -19 -11 -45 l-25 -31
-59 42 c-32 23 -158 113 -279 200 -121 86 -231 161 -243 166 -36 14 -89 -9
-111 -47 -17 -28 -18 -39 -9 -70 6 -20 24 -46 38 -57 68 -50 66 -46 43 -82
l-21 -32 -50 37 c-65 48 -88 91 -88 163 0 68 26 113 85 146 49 28 124 30 168
6z m816 -1667 l53 -28 -6 -61 c-14 -131 -12 -127 -66 -127 l-49 0 -11 58 c-6
31 -12 61 -14 66 -3 13 -84 36 -127 36 -75 0 -132 -113 -132 -260 0 -94 29
-166 86 -215 59 -51 110 -55 216 -20 81 28 84 28 97 10 32 -43 19 -55 -111
-110 -22 -9 -48 -21 -57 -26 -47 -24 -184 1 -249 47 -99 68 -141 157 -142 299
0 100 21 173 71 237 73 96 153 130 292 125 80 -3 103 -8 149 -31z m574 5 c60
-29 128 -97 155 -155 50 -104 51 -271 3 -365 -27 -51 -93 -115 -149 -143 -40
-19 -63 -23 -147 -23 -91 0 -105 3 -160 30 -132 67 -199 214 -174 388 18 136
96 236 218 283 58 22 195 14 254 -15z m-3213 -6 c0 -8 -20 -25 -45 -37 l-45
-22 2 -261 3 -260 65 3 c36 2 83 7 105 11 39 6 40 7 59 74 l19 67 43 0 c35 0
44 -4 45 -17 2 -58 -3 -197 -8 -209 -4 -12 -53 -14 -290 -14 -263 0 -284 1
-281 17 2 9 22 26 44 37 l41 20 1 272 0 273 -39 6 c-33 6 -39 11 -39 31 l0 24
160 0 c136 0 160 -2 160 -15z m866 -65 c-9 -108 -10 -110 -61 -110 l-43 0 -7
49 -7 48 -60 7 c-34 3 -76 6 -94 6 l-34 0 0 -111 0 -111 110 7 110 8 0 -53 0
-53 -110 8 -110 7 0 -110 0 -110 88 5 c48 3 91 6 96 7 5 1 16 26 25 56 15 51
19 55 49 58 53 5 58 -5 52 -110 l-5 -93 -274 0 c-297 0 -327 6 -237 46 l46 20
0 274 0 275 -40 6 c-34 6 -40 10 -40 30 l0 24 276 0 277 0 -7 -80z m414 66 c0
-7 -11 -21 -25 -30 l-25 -17 56 -82 c30 -45 60 -82 65 -82 5 0 31 36 59 80
l49 80 -39 9 c-33 7 -40 13 -40 32 l0 24 135 0 c114 0 135 -2 135 -15 0 -8
-19 -25 -42 -36 -36 -17 -56 -41 -120 -140 -43 -66 -78 -123 -78 -128 0 -4 44
-73 98 -152 88 -129 102 -145 135 -153 29 -8 37 -14 37 -33 l0 -23 -155 0
c-142 0 -155 1 -155 18 0 11 12 22 31 29 l31 12 -69 100 c-37 55 -70 101 -73
101 -5 0 -121 -174 -128 -190 -2 -5 15 -11 37 -15 35 -6 41 -10 41 -31 l0 -25
-142 3 c-156 3 -185 15 -108 45 36 15 55 35 142 160 l100 144 -88 134 c-83
124 -92 134 -126 140 -32 6 -38 11 -38 31 l0 24 150 0 c121 0 150 -3 150 -14z
m780 -1 c0 -8 -20 -25 -44 -37 l-45 -21 0 -261 c-1 -144 2 -266 7 -272 4 -6
26 -15 50 -19 36 -6 42 -10 42 -31 l0 -24 -170 0 c-145 0 -170 2 -170 15 0 8
20 25 45 37 l45 22 0 272 0 272 -40 7 c-34 6 -40 11 -40 31 l0 24 160 0 c136
0 160 -2 160 -15z m1820 -232 c85 -133 155 -241 155 -240 1 1 -1 96 -4 212
l-6 210 -47 9 c-42 7 -48 11 -48 32 l0 24 146 0 c130 0 145 -2 142 -17 -2 -9
-20 -25 -40 -36 l-38 -19 0 -304 0 -304 -22 -4 c-13 -3 -46 -7 -75 -10 l-52
-5 -157 242 c-86 133 -161 246 -166 252 -5 6 -6 -12 -2 -45 3 -30 7 -125 7
-210 l2 -155 48 -8 c41 -8 47 -12 47 -33 l0 -24 -144 0 c-121 0 -145 2 -150
16 -4 11 6 21 39 35 l45 20 0 273 0 274 -35 6 c-29 6 -35 11 -35 32 l0 25 117
-3 118 -3 155 -242z m-1810 -607 c0 -3 -9 -68 -21 -147 -18 -127 -19 -143 -5
-151 8 -5 13 -15 10 -23 -9 -22 -104 -21 -104 1 0 9 9 18 19 21 21 5 24 16 41
138 6 44 13 92 16 108 4 20 2 27 -10 27 -9 0 -16 7 -16 15 0 10 11 15 35 15
19 0 35 -2 35 -4z m1509 -23 c0 -16 -8 -83 -18 -150 -14 -99 -15 -123 -4 -123
7 0 13 -9 13 -20 0 -17 -7 -20 -50 -20 -43 0 -50 3 -50 20 0 13 7 20 18 20 16
0 20 18 35 128 21 151 21 142 2 142 -9 0 -12 6 -9 15 4 9 19 15 35 15 25 0 29
-4 28 -27z m-2516 1 c23 -5 28 -11 23 -28 -3 -11 -6 -24 -6 -28 0 -14 -30 -8
-30 6 0 33 -67 34 -119 2 -71 -45 -93 -139 -45 -195 29 -35 76 -47 118 -31 22
8 31 8 37 -2 12 -20 -22 -37 -75 -38 -118 0 -179 105 -125 216 32 68 121 121
179 108 8 -2 28 -6 43 -10z m2385 1 c31 -9 32 -65 1 -65 -14 0 -19 5 -16 14 3
8 -1 17 -9 20 -83 32 -196 -73 -177 -164 12 -62 86 -103 145 -81 19 7 29 7 34
-1 19 -30 -81 -51 -139 -29 -14 6 -37 26 -52 45 -69 90 -2 236 121 265 39 9
49 8 92 -4z m-3568 -7 c0 -30 -13 -58 -26 -58 -8 0 -14 9 -14 20 0 18 -7 20
-60 20 -66 0 -65 1 -74 -67 l-6 -43 70 0 c56 0 70 -3 70 -15 0 -12 -14 -15
-62 -16 -35 -1 -67 -1 -71 0 -10 2 -14 -13 -20 -66 -5 -40 -4 -43 20 -43 18 0
24 -5 21 -17 -2 -14 -15 -19 -60 -21 -52 -3 -57 -1 -51 15 4 10 12 23 19 28 6
6 17 53 24 105 6 52 14 105 17 118 4 16 1 22 -11 22 -10 0 -13 6 -10 15 8 20
224 22 224 3z m2901 -86 c-8 -50 -7 -52 15 -52 15 0 24 -6 24 -15 0 -9 -9 -15
-24 -15 -25 0 -36 -21 -36 -72 0 -18 5 -28 15 -28 8 0 15 -9 15 -20 0 -17 -7
-20 -41 -20 -34 0 -40 3 -35 18 2 9 8 41 11 70 6 49 6 52 -15 52 -27 0 -21 24
7 28 16 2 21 13 26 54 6 49 23 76 39 60 4 -4 4 -31 -1 -60z m-2566 -73 c12
-12 19 -32 19 -55 0 -78 -105 -124 -159 -69 -29 28 -32 61 -8 95 40 59 103 72
148 29z m255 11 c10 -10 22 -15 25 -10 11 17 76 30 98 19 17 -9 19 -19 15 -70
-3 -44 -1 -59 9 -59 7 0 13 -9 13 -20 0 -18 -7 -20 -54 -20 -49 0 -54 2 -49
20 3 11 14 20 24 20 16 0 19 8 19 45 0 33 -5 47 -17 52 -46 18 -107 -72 -68
-101 28 -20 9 -36 -46 -36 -38 0 -49 4 -49 16 0 9 9 18 20 21 21 6 37 60 26
88 -15 40 -96 -10 -96 -60 0 -14 5 -25 10 -25 6 0 10 -9 10 -20 0 -17 -7 -20
-50 -20 -39 0 -50 3 -50 16 0 9 9 18 20 21 11 3 20 10 20 17 0 6 3 28 6 49 5
30 4 37 -10 37 -9 0 -16 7 -16 15 0 10 11 15 35 15 23 0 35 -5 35 -14 0 -11 8
-10 37 5 47 24 58 24 83 -1z m783 -8 c11 -9 17 -29 17 -54 0 -85 -99 -130
-157 -72 -76 76 58 198 140 126z m247 10 c22 -18 24 -18 62 1 32 16 44 18 65
8 24 -11 25 -15 20 -71 -4 -47 -2 -60 9 -60 8 0 14 -9 14 -20 0 -18 -7 -20
-55 -20 -30 0 -55 2 -55 4 0 16 14 36 26 36 16 0 27 37 22 71 -2 20 -8 24 -33
22 -17 -1 -38 -12 -47 -24 -19 -23 -24 -69 -8 -69 6 0 10 -9 10 -20 0 -17 -7
-20 -50 -20 -39 0 -50 3 -50 16 0 9 9 18 19 21 25 6 40 81 20 94 -21 13 -34
11 -61 -11 -28 -22 -43 -80 -21 -80 7 0 13 -9 13 -20 0 -17 -7 -20 -50 -20
-43 0 -50 3 -50 20 0 13 7 20 20 20 15 0 20 7 20 28 0 15 3 37 6 50 5 16 2 22
-10 22 -9 0 -16 7 -16 15 0 10 11 15 35 15 26 0 35 -4 35 -17 0 -15 2 -15 18
-1 14 14 33 21 63 27 4 0 17 -7 29 -17z m403 -14 c28 -33 22 -85 -15 -120 -27
-25 -38 -29 -77 -26 l-46 2 -6 -42 c-5 -37 -3 -42 14 -42 10 0 17 -5 15 -12
-3 -8 -26 -14 -56 -16 -42 -2 -52 0 -52 12 0 9 8 16 18 16 16 0 20 14 30 89
16 116 15 131 -4 131 -9 0 -14 6 -11 13 2 7 22 12 50 12 25 1 49 4 52 7 12 12
70 -4 88 -24z m327 17 c33 -17 49 -53 29 -66 -8 -5 -30 -14 -49 -19 -19 -5
-42 -14 -50 -20 -13 -9 -13 -11 0 -20 8 -5 27 -7 43 -4 20 4 27 2 27 -9 0 -33
-73 -37 -107 -5 -44 41 -23 116 41 144 39 17 32 17 66 -1z m773 -13 c11 -9 17
-29 17 -55 0 -81 -100 -128 -155 -72 -78 77 55 200 138 127z m749 8 c14 -11
28 -28 31 -39 4 -17 -5 -23 -59 -41 -78 -26 -85 -48 -14 -42 8 1 21 -1 29 -3
25 -9 -9 -35 -46 -35 -40 0 -83 37 -83 72 0 40 38 84 85 100 30 9 31 9 57 -12z
m234 9 l31 1 -8 -48 c-12 -69 -11 -82 6 -82 8 0 15 -9 15 -19 0 -17 -8 -19
-85 -20 -79 0 -86 2 -105 26 -24 30 -25 54 -6 92 18 33 73 64 101 55 11 -4 34
-6 51 -5z m-4026 -14 c0 -12 5 -11 29 3 16 9 33 13 38 8 4 -5 -1 -13 -11 -20
-39 -22 -66 -56 -66 -81 0 -14 5 -25 10 -25 6 0 10 -9 10 -20 0 -17 -7 -20
-50 -20 -39 0 -50 3 -50 16 0 9 9 18 19 21 29 7 44 103 16 103 -9 0 -12 6 -9
15 8 20 64 20 64 0z m2454 -11 c-5 -20 -3 -25 7 -22 8 3 13 15 11 26 -3 20 1
22 42 22 34 0 46 -4 46 -15 0 -8 -6 -15 -13 -15 -7 0 -26 -13 -41 -29 -24 -24
-26 -32 -17 -50 7 -12 20 -21 30 -21 23 0 31 -8 24 -26 -3 -9 -21 -14 -55 -14
l-50 0 7 33 c5 21 4 29 -3 22 -6 -5 -12 -19 -14 -30 -2 -16 -12 -21 -51 -23
-26 -2 -47 -1 -47 2 0 18 15 36 29 36 10 0 28 11 41 25 21 22 22 27 10 50 -8
16 -22 25 -37 25 -22 0 -30 10 -16 23 3 4 28 7 55 7 47 0 48 -1 42 -26z m1736
10 c0 -15 2 -15 25 0 30 20 45 20 45 1 0 -8 -7 -15 -15 -15 -25 0 -65 -46 -65
-75 0 -14 5 -25 10 -25 6 0 10 -9 10 -20 0 -17 -7 -20 -50 -20 -39 0 -50 3
-50 16 0 9 9 18 19 21 31 8 46 103 16 103 -9 0 -12 6 -9 15 8 21 64 20 64 -1z"/>
<path d="M3482 1465 c-44 -37 -67 -119 -67 -240 1 -107 21 -172 68 -223 53
-57 155 -72 194 -29 52 56 78 156 70 271 -5 84 -15 115 -55 178 -45 69 -152
92 -210 43z"/>
<path d="M620 490 c-27 -27 -25 -56 4 -75 19 -13 29 -14 45 -5 33 17 45 48 30
76 -15 30 -52 31 -79 4z"/>
<path d="M1660 490 c-32 -32 -24 -71 17 -84 32 -10 77 35 67 67 -13 41 -52 49
-84 17z"/>
<path d="M2312 494 c-46 -32 -15 -106 37 -89 40 12 60 64 36 89 -21 20 -44 20
-73 0z"/>
<path d="M2667 492 c-9 -10 -17 -21 -17 -24 0 -9 65 16 70 27 9 18 -36 16 -53
-3z"/>
<path d="M3407 492 c-32 -35 -16 -84 27 -84 49 0 76 44 49 81 -18 26 -54 27
-76 3z"/>
<path d="M4192 504 c-7 -3 -17 -14 -22 -24 -9 -18 -8 -18 31 -7 22 7 41 17 42
22 2 11 -31 17 -51 9z"/>
<path d="M4387 492 c-43 -48 6 -112 59 -77 28 18 38 48 24 75 -14 26 -61 27
-83 2z"/>
</g>
</svg>
